<svg width="100" height="100" viewBox="0 0 100 100" fill="none" xmlns="http://www.w3.org/2000/svg">
<rect width="100" height="100" rx="10" fill="url(#paint0_linear_7862_10786)"/>
<path d="M83.377 81.7665C83.7909 81.0938 84.1447 80.3857 84.4382 79.6426C85.0461 78.1037 84.6449 76.6176 83.6991 75.539C82.7628 74.4713 81.2923 73.7945 79.7091 73.7945H78.3017C76.2182 73.7945 74.7167 75.4605 73.7831 77.0358C73.3356 77.7772 72.7722 78.3267 72.0942 78.7002L72.0907 78.7022C71.4275 79.0745 70.651 79.268 69.7465 79.268C68.6241 79.268 67.6591 78.9581 66.8311 78.3466C66.0034 77.721 65.3343 76.7868 64.8422 75.5083C64.3659 74.2191 64.1192 72.6174 64.1192 70.689C64.1192 68.7591 64.3663 67.173 64.8416 65.9146C65.3341 64.6346 66.003 63.7087 66.8291 63.098L66.8331 63.0949C67.6615 62.4695 68.6257 62.1533 69.7465 62.1533C71.139 62.1533 72.2254 62.5955 73.0542 63.4556L73.4142 63.1086L73.0569 63.4583C73.2154 63.6204 73.3766 63.7876 73.5405 63.9577C74.2738 64.7188 75.0613 65.536 75.9123 66.1942C76.9637 67.0072 78.1709 67.6269 79.595 67.6269H79.7161C81.3009 67.6269 82.7786 66.9516 83.718 65.8855C84.6677 64.8079 85.0686 63.3213 84.4424 61.7832C84.1473 61.0583 83.7908 60.3683 83.373 59.7137C82.0405 57.5891 80.1843 55.9497 77.8189 54.7964C75.4651 53.6419 72.7191 53.0734 69.5955 53.0734C66.0587 53.0734 62.9841 53.8126 60.3914 55.3127L60.3904 55.3133C57.8191 56.8096 55.833 58.8998 54.438 61.5741L54.4375 61.5751C53.057 64.2353 52.3749 67.3142 52.3749 70.7976C52.3749 74.2669 53.0571 77.3453 54.437 80.0191L54.4375 80.0201C55.8185 82.6809 57.7978 84.764 60.3688 86.2601L60.3699 86.2608C62.9631 87.7612 66.0523 88.5 69.617 88.5C72.7839 88.5 75.5464 87.9243 77.8882 86.753L77.8893 86.7524C80.2401 85.5691 82.0742 83.9068 83.377 81.7665ZM83.377 81.7665C83.3767 81.7669 83.3764 81.7673 83.3762 81.7678L82.9509 81.506L83.3775 81.7656C83.3773 81.7659 83.3771 81.7662 83.377 81.7665ZM38.9159 45.7971H31.5194V33.896C31.5194 29.8111 34.8309 26.4996 38.9159 26.4996C41.2555 26.4996 43.1908 26.903 44.7428 27.6842C46.298 28.4671 47.4619 29.5711 48.2518 30.9984L48.2533 31.0011C49.0451 32.4114 49.4515 34.1046 49.4515 36.0995C49.4515 38.0706 49.0459 39.7771 48.2511 41.2344C47.4606 42.6623 46.2953 43.7778 44.7381 44.5823L44.7357 44.5835C43.2085 45.383 41.2766 45.7971 38.9159 45.7971ZM31.5194 71.7149V59.5035H41.8932C47.0252 59.5035 51.4864 58.547 55.2603 56.614C59.0311 54.6826 61.9412 51.9561 63.9765 48.4371C66.0334 44.8965 67.0534 40.7784 67.0534 36.0995C67.0534 31.4433 66.0554 27.3374 64.0431 23.7976C62.0319 20.2382 59.1682 17.4681 55.4635 15.4919C51.7736 13.4904 47.4061 12.5 42.3786 12.5H28C20.5442 12.5 14.5 18.5442 14.5 26V71.7149C14.5 76.4147 18.3099 80.2246 23.0097 80.2246C27.7095 80.2246 31.5194 76.4147 31.5194 71.7149Z" fill="white" stroke="#E9E9E9"/>
<defs>
<linearGradient id="paint0_linear_7862_10786" x1="0.999999" y1="2.5" x2="98" y2="100" gradientUnits="userSpaceOnUse">
<stop offset="0.0051662" stop-color="#8F5AEB"/>
<stop offset="0.39" stop-color="#3078DD"/>
<stop offset="0.63" stop-color="#3078DD"/>
<stop offset="1" stop-color="#86C4EA"/>
</linearGradient>
</defs>
</svg>
