<svg width="66" height="70" viewBox="0 0 66 70" fill="none" xmlns="http://www.w3.org/2000/svg">
<path d="M7.55201 62.2763C3.38115 62.2763 0 58.8951 0 54.7243V13C0 5.82031 5.8203 0 13 0H25.8141C30.4928 0 34.5307 0.912251 37.9279 2.73675C41.3454 4.54098 43.9797 7.06487 45.8308 10.3084C47.6819 13.5317 48.6075 17.2821 48.6075 21.5595C48.6075 25.8572 47.6616 29.6177 45.7698 32.841C43.8983 36.044 41.2233 38.5274 37.7448 40.2911C34.2663 42.0547 30.1368 42.9366 25.3564 42.9366H15.3582C12.0834 42.9366 9.42857 40.2818 9.42857 37.007V37.007C9.42857 33.7321 12.0834 31.0773 15.3582 31.0773H22.5492C24.8276 31.0773 26.7295 30.682 28.2552 29.8914C29.8012 29.1008 30.9709 27.9959 31.7642 26.5769C32.5576 25.1376 32.9542 23.4651 32.9542 21.5595C32.9542 19.6337 32.5576 17.9713 31.7642 16.5725C30.9709 15.1535 29.8012 14.0588 28.2552 13.2884C26.7092 12.5181 24.8072 12.1329 22.5492 12.1329V12.1329C18.4374 12.1329 15.104 15.4663 15.104 19.5781V54.7243C15.104 58.8951 11.7229 62.2763 7.55201 62.2763V62.2763Z" fill="url(#paint0_linear_7862_10789)"/>
<path d="M51.4961 70C48.2006 70 45.3731 69.3243 43.0134 67.9728C40.6673 66.6213 38.8636 64.7427 37.6024 62.3371C36.3412 59.918 35.7106 57.1204 35.7106 53.9444C35.7106 50.7549 36.3412 47.9573 37.6024 45.5517C38.8772 43.1325 40.6876 41.2472 43.0337 39.8957C45.3934 38.5443 48.2074 37.8685 51.4757 37.8685C54.3643 37.8685 56.88 38.3888 59.0227 39.4295C61.1789 40.4701 62.8605 41.9432 64.0675 43.8488C64.4372 44.422 64.7541 45.0256 65.018 45.6595C66.068 48.1813 63.7463 50.5184 61.0147 50.5184H60.8691C58.4929 50.5184 56.7467 48.4579 55.0763 46.768V46.768C54.1948 45.8625 53.0421 45.4098 51.6181 45.4098C50.4654 45.4098 49.4551 45.7341 48.5871 46.3829C47.7192 47.0181 47.0411 47.9641 46.5529 49.221C46.0783 50.4643 45.841 52.005 45.841 53.843C45.841 55.6811 46.0783 57.2353 46.5529 58.5057C47.0411 59.7625 47.7192 60.7153 48.5871 61.364C49.4551 61.9992 50.4654 62.3168 51.6181 62.3168C52.5403 62.3168 53.354 62.1209 54.0592 61.7289C54.7779 61.337 55.3679 60.7626 55.8289 60.0058V60.0058C56.6926 58.5628 57.9756 57.2082 59.6574 57.2082H61.008C63.7346 57.2082 66.0337 59.5478 65.0127 62.0761C64.7496 62.7276 64.4345 63.3484 64.0675 63.9386C62.8877 65.8577 61.2264 67.3511 59.0837 68.4188C56.9545 69.4729 54.4253 70 51.4961 70Z" fill="url(#paint1_linear_7862_10789)"/>
<defs>
<linearGradient id="paint0_linear_7862_10789" x1="0" y1="0" x2="65.994" y2="69.8011" gradientUnits="userSpaceOnUse">
<stop stop-color="#8B5BEA"/>
<stop offset="0.275" stop-color="#3078DD"/>
<stop offset="0.65" stop-color="#3078DD"/>
<stop offset="1" stop-color="#86C4EA"/>
</linearGradient>
<linearGradient id="paint1_linear_7862_10789" x1="0" y1="0" x2="65.994" y2="69.8011" gradientUnits="userSpaceOnUse">
<stop stop-color="#8B5BEA"/>
<stop offset="0.275" stop-color="#3078DD"/>
<stop offset="0.65" stop-color="#3078DD"/>
<stop offset="1" stop-color="#86C4EA"/>
</linearGradient>
</defs>
</svg>
